<svg width="71" height="83" viewBox="0 0 71 83" fill="none" xmlns="http://www.w3.org/2000/svg">
<path d="M31.25 0H39.5833V8.33333H41.6667C43.3243 8.33333 44.914 8.99181 46.0861 10.1639C47.2582 11.336 47.9167 12.9257 47.9167 14.5833V29.1667L46.0833 31L52.9167 42.8333C57.5417 38.2917 60.4167 32 60.4167 25H68.75C68.75 35.0833 64.2917 44.125 57.2083 50.25L70.2917 72.9167L70.8333 82.1667L63.0417 77.0833L50.25 54.875C45.8333 57.0833 40.75 58.3333 35.4167 58.3333C30.0833 58.3333 25 57.0833 20.5833 54.875L7.79167 77.0833L0 82.1667L0.541667 72.9167L24.75 31L22.9167 29.1667V14.5833C22.9167 12.9257 23.5751 11.336 24.7472 10.1639C25.9194 8.99181 27.5091 8.33333 29.1667 8.33333H31.25V0ZM24.75 47.625C28 49.1667 31.625 50 35.4167 50C39.2083 50 42.8333 49.1667 46.0833 47.625L40 37.0833H39.9583C37.375 39.5833 33.4583 39.5833 30.875 37.0833H30.8333L24.75 47.625ZM35.4167 16.6667C34.3116 16.6667 33.2518 17.1057 32.4704 17.8871C31.689 18.6685 31.25 19.7283 31.25 20.8333C31.25 21.9384 31.689 22.9982 32.4704 23.7796C33.2518 24.561 34.3116 25 35.4167 25C36.5217 25 37.5815 24.561 38.3629 23.7796C39.1443 22.9982 39.5833 21.9384 39.5833 20.8333C39.5833 19.7283 39.1443 18.6685 38.3629 17.8871C37.5815 17.1057 36.5217 16.6667 35.4167 16.6667Z" fill="white"/>
</svg>
