<svg width="23" height="23" viewBox="0 0 23 23" fill="none" xmlns="http://www.w3.org/2000/svg">
<path d="M0 20.0343C0 21.6724 1.3278 23 2.96565 23H20.0343C21.6724 23 23 21.6722 23 20.0343V2.96574C23 1.32762 21.6722 0 20.0343 0H2.96574C1.32762 0 0 1.3278 0 2.96565V20.0343V20.0343Z" fill="#563D7C"/>
<path d="M9.53762 10.1737V6.91662H12.4046C12.6777 6.91662 12.941 6.93935 13.1945 6.9849C13.4481 7.03036 13.6724 7.11158 13.8675 7.22865C14.0624 7.34571 14.2185 7.50824 14.3355 7.71623C14.4525 7.92431 14.5111 8.19088 14.5111 8.51584C14.5111 9.10099 14.3355 9.52362 13.9844 9.78363C13.6334 10.0437 13.1848 10.1737 12.6387 10.1737H9.53762ZM6.47548 4.53711V18.4629H13.2238C13.848 18.4629 14.4558 18.3849 15.0475 18.2288C15.6391 18.0728 16.1657 17.8323 16.6273 17.5072C17.0888 17.1822 17.4562 16.7628 17.7292 16.2492C18.0023 15.7356 18.1388 15.1277 18.1388 14.4256C18.1388 13.5544 17.9275 12.81 17.505 12.1924C17.0823 11.5747 16.4419 11.1424 15.5837 10.8954C16.2079 10.5964 16.6793 10.2127 16.9979 9.74463C17.3164 9.27655 17.4757 8.69148 17.4757 7.98927C17.4757 7.33916 17.3684 6.79309 17.1539 6.35097C16.9393 5.90893 16.637 5.55459 16.2469 5.28802C15.8569 5.02146 15.3888 4.82964 14.8426 4.71266C14.2966 4.5956 13.6919 4.53711 13.0288 4.53711H6.47548ZM9.53762 16.0834V12.2606H12.8727C13.5358 12.2606 14.069 12.4134 14.4721 12.719C14.8751 13.0246 15.0768 13.5349 15.0768 14.25C15.0768 14.6142 15.0149 14.9132 14.8914 15.1472C14.7679 15.3813 14.6021 15.5666 14.394 15.7031C14.186 15.8396 13.9454 15.9371 13.6724 15.9957C13.3993 16.0541 13.1133 16.0834 12.8142 16.0834H9.53762Z" fill="white"/>
</svg>
