<svg width="23" height="33" viewBox="0 0 23 33" fill="none" xmlns="http://www.w3.org/2000/svg">
<path d="M11.4859 31.1143L2.09318 28.6657L0 6.62006H23L20.9047 28.6623L11.4859 31.1143Z" fill="#264DE4"/>
<path d="M4.82184 17.2437L5.07897 20.1632H11.5V17.2437H4.82184Z" fill="#EBEBEB"/>
<path d="M4.30505 11.3347L4.56587 14.2542H11.5V11.3347H4.30505Z" fill="#EBEBEB"/>
<path d="M11.5 24.8259L11.4874 24.8293L8.29185 23.9514L8.08755 21.623H5.20715L5.60911 26.207L11.4868 27.867L11.5 27.8634V24.8259Z" fill="#EBEBEB"/>
<path d="M5.43408 0H8.90924V1.47869H6.88739V2.95739H8.90942V4.43599H5.43408V0Z" fill="white"/>
<path d="M9.60434 0H13.0796V1.28581H11.0576V1.54296H13.0796V4.50034H9.60443V3.15008H11.6264V2.89294H9.60425V0H9.60434Z" fill="white"/>
<path d="M13.7748 0H17.25V1.28581H15.2281V1.54296H17.25V4.50034H13.7748V3.15008H15.7967V2.89294H13.7749V0H13.7748Z" fill="white"/>
<path d="M18.1599 17.2437L18.6778 11.3347H11.4901V14.2542H15.5333L15.2722 17.2437H11.4901V20.1632H15.0234L14.6903 23.9495L11.4901 24.8283V27.8656L17.3724 26.2069L17.4155 25.7137L18.0899 18.0277L18.1599 17.2437Z" fill="white"/>
</svg>
