<svg width="28" height="12" viewBox="0 0 28 12" fill="none" xmlns="http://www.w3.org/2000/svg">
<path d="M0.182219 9.3124V4.72333H4.07291V4.4549H0.182219V0.268349H4.31889V0H0V9.58075H4.35531V9.3124H0.182273H0.182219ZM7.86335 2.68365L6.25062 5.81017L4.67425 2.68373H4.43734L6.14124 6.01152L4.27328 9.58067H4.49198L6.25051 6.21262L8.01817 9.58067H8.24595L6.36896 6.01136L8.08194 2.68357H7.8633L7.86335 2.68365ZM8.79271 11.9424V7.64859H8.81092C8.9203 8.27477 9.13593 8.77796 9.45788 9.15817C9.77982 9.53831 10.1898 9.72846 10.6879 9.72846C11.0099 9.72846 11.2954 9.63229 11.5444 9.43997C11.7935 9.24765 12.0015 8.98599 12.1686 8.65498C12.3356 8.32397 12.4632 7.93933 12.5513 7.50097C12.6393 7.06268 12.6834 6.60193 12.6834 6.11895C12.6834 5.60005 12.6378 5.12142 12.5467 4.68314C12.4556 4.24478 12.3234 3.86456 12.1504 3.54258C11.9772 3.22051 11.7677 2.96996 11.5216 2.79117C11.2756 2.61221 10.9977 2.52274 10.6879 2.52274C10.451 2.52274 10.2308 2.5742 10.0273 2.67705C9.82384 2.77997 9.64316 2.92526 9.48522 3.11315C9.32636 3.30249 9.18808 3.52647 9.07517 3.77734C8.95978 4.03232 8.87168 4.31187 8.81092 4.61605H8.79271V2.68365H8.61049V11.9424H8.79271ZM10.6879 9.4734C10.117 9.4734 9.6583 9.18491 9.31208 8.60795C8.96585 8.03098 8.79271 7.20121 8.79271 6.11879C8.79271 5.67149 8.83526 5.24658 8.9203 4.84405C9.00534 4.44153 9.12833 4.08813 9.28927 3.78403C9.45027 3.47984 9.64923 3.23831 9.88608 3.05944C10.123 2.88048 10.3903 2.79101 10.6879 2.79101C10.9916 2.79101 11.2574 2.88048 11.4852 3.05944C11.713 3.23831 11.9013 3.48209 12.0501 3.79071C12.1989 4.09933 12.3113 4.45272 12.3873 4.85074C12.4632 5.24883 12.5011 5.67149 12.5011 6.11879C12.5011 6.5214 12.4662 6.92174 12.3963 7.31976C12.3265 7.71785 12.2187 8.07568 12.0729 8.39332C11.9271 8.71079 11.7404 8.9702 11.5125 9.17154C11.2847 9.3728 11.0099 9.4734 10.6879 9.4734ZM13.6857 9.58075V5.676C13.6857 5.30029 13.7221 4.93345 13.795 4.5757C13.8679 4.21788 13.9803 3.9025 14.1321 3.62972C14.284 3.35686 14.4768 3.14215 14.7107 2.98558C14.9446 2.82902 15.2225 2.76419 15.5444 2.79101V2.52266C15.265 2.5138 15.0205 2.55842 14.811 2.65683C14.6013 2.75525 14.4207 2.88942 14.2688 3.05944C14.1169 3.22937 13.9955 3.42838 13.9044 3.65654C13.8133 3.88434 13.7457 4.13078 13.7039 4.38781H13.6857V2.68365H13.5034V9.58083H13.6857V9.58075ZM15.7722 6.18588H19.6902C19.7024 5.71176 19.6705 5.2556 19.5945 4.81723C19.5186 4.37887 19.3971 3.98972 19.2301 3.64985C19.063 3.30991 18.8474 3.03705 18.5831 2.83127C18.3189 2.6255 18.0045 2.52266 17.6401 2.52266C17.3789 2.52266 17.1238 2.60319 16.8747 2.76427C16.6257 2.92526 16.407 3.16003 16.2187 3.46864C16.0304 3.77726 15.8785 4.15522 15.7631 4.6026C15.6477 5.04983 15.59 5.5597 15.59 6.13224C15.59 6.64212 15.6295 7.1185 15.7084 7.56129C15.7874 8.00408 15.9089 8.3888 16.0729 8.7153C16.2369 9.0418 16.448 9.29452 16.7062 9.4734C16.9643 9.65235 17.2756 9.73732 17.6401 9.72838C18.1746 9.72838 18.6242 9.5069 18.9886 9.06419C19.3531 8.62132 19.5687 7.9974 19.6355 7.19227H19.4533C19.3744 7.9527 19.1723 8.52298 18.8474 8.90311C18.5224 9.28333 18.1139 9.4734 17.6218 9.4734C17.2878 9.4734 17.0053 9.38843 16.7745 9.2185C16.5437 9.04856 16.3553 8.81589 16.2095 8.52072C16.0638 8.22548 15.956 7.87885 15.8861 7.48075C15.8162 7.08274 15.7783 6.65106 15.7722 6.18588ZM19.508 5.91753H15.7723C15.7904 5.43447 15.8512 5.00062 15.9544 4.61597C16.0577 4.23125 16.1929 3.9025 16.3599 3.62972C16.5269 3.35686 16.7214 3.14891 16.9431 3.00572C17.1648 2.8626 17.4032 2.79101 17.6583 2.79101C17.9621 2.79101 18.2293 2.8738 18.4601 3.0393C18.6909 3.20481 18.8838 3.43071 19.0387 3.71694C19.1936 4.00317 19.3105 4.33643 19.3895 4.71656C19.4685 5.09678 19.508 5.49713 19.508 5.91753ZM23.4715 4.72333H23.6538C23.6538 3.95396 23.5019 3.39487 23.1982 3.04599C22.8944 2.6971 22.4814 2.52266 21.959 2.52266C21.6674 2.52266 21.4214 2.57638 21.2209 2.68373C21.0205 2.79101 20.8565 2.92969 20.7289 3.09962C20.6014 3.26956 20.5103 3.45745 20.4556 3.66322C20.4009 3.86899 20.3736 4.06583 20.3736 4.25364C20.3736 4.62934 20.4191 4.92902 20.5103 5.15267C20.6014 5.37632 20.7441 5.55076 20.9385 5.676C21.0721 5.7654 21.2239 5.84593 21.3941 5.91761C21.5642 5.98913 21.7616 6.06515 21.9863 6.14561C22.1868 6.21729 22.3842 6.28881 22.5786 6.36032C22.773 6.43192 22.9446 6.52808 23.0934 6.64881C23.2422 6.76961 23.3637 6.92392 23.4579 7.11181C23.552 7.29962 23.5991 7.54566 23.5991 7.84977C23.5991 8.14502 23.552 8.39549 23.4579 8.60118C23.3645 8.80588 23.2416 8.97772 23.098 9.10446C22.9522 9.23412 22.7896 9.32803 22.6105 9.38617C22.4313 9.44432 22.2567 9.4734 22.0866 9.4734C21.5338 9.4734 21.1101 9.29227 20.8155 8.93001C20.5209 8.56768 20.3736 7.9974 20.3736 7.21909H20.1913C20.1913 8.08687 20.3508 8.72199 20.6697 9.12459C20.9886 9.52711 21.4609 9.72838 22.0866 9.72838C22.287 9.72838 22.489 9.69479 22.6925 9.6277C22.896 9.56062 23.0782 9.45109 23.2392 9.29895C23.3988 9.14897 23.5328 8.947 23.631 8.70862C23.7312 8.46701 23.7814 8.17184 23.7814 7.82295C23.7814 7.49195 23.7373 7.2236 23.6492 7.01783C23.5611 6.81213 23.4457 6.64212 23.3029 6.50795C23.1602 6.37377 22.9993 6.26867 22.8201 6.19264C22.6398 6.11617 22.4591 6.04234 22.2779 5.97117C22.0549 5.885 21.8316 5.80003 21.6082 5.71627C21.4169 5.64467 21.2392 5.5597 21.0752 5.46129C20.9173 5.36287 20.7912 5.22201 20.697 5.03863C20.6029 4.85525 20.5558 4.59358 20.5558 4.25364C20.5558 4.19106 20.568 4.07919 20.5923 3.9182C20.6165 3.75713 20.6743 3.59388 20.7654 3.42838C20.8565 3.26295 20.9962 3.11533 21.1845 2.98558C21.3728 2.85592 21.631 2.79101 21.959 2.79101C22.1838 2.79101 22.3887 2.82685 22.574 2.89836C22.7593 2.96996 22.9188 3.084 23.0524 3.24056C23.186 3.39713 23.2893 3.59613 23.3622 3.83766C23.4351 4.07928 23.4715 4.37444 23.4715 4.72333ZM27.6902 4.72333H27.8724C27.8724 3.95396 27.7206 3.39487 27.4169 3.04599C27.1131 2.6971 26.7001 2.52266 26.1776 2.52266C25.8861 2.52266 25.6401 2.57638 25.4396 2.68373C25.2392 2.79101 25.0751 2.92969 24.9476 3.09962C24.82 3.26956 24.7289 3.45745 24.6742 3.66322C24.6195 3.86899 24.5923 4.06583 24.5923 4.25364C24.5923 4.62934 24.6378 4.92902 24.729 5.15267C24.82 5.37632 24.9628 5.55076 25.1572 5.676C25.2908 5.7654 25.4426 5.84593 25.6127 5.91761C25.7828 5.98913 25.9802 6.06515 26.205 6.14561C26.4055 6.21729 26.6029 6.28881 26.7973 6.36032C26.9917 6.43192 27.1632 6.52808 27.3121 6.64881C27.4609 6.76961 27.5824 6.92392 27.6765 7.11181C27.7707 7.29962 27.8178 7.54566 27.8178 7.84977C27.8178 8.14502 27.7707 8.39549 27.6765 8.60118C27.5832 8.80587 27.4603 8.97771 27.3167 9.10446C27.1708 9.23412 27.0084 9.32803 26.8291 9.38617C26.65 9.44432 26.4753 9.4734 26.3052 9.4734C25.7525 9.4734 25.3288 9.29227 25.0342 8.93001C24.7395 8.56768 24.5923 7.9974 24.5923 7.21909H24.41C24.41 8.08687 24.5695 8.72199 24.8884 9.12459C25.2073 9.52711 25.6796 9.72838 26.3052 9.72838C26.5057 9.72838 26.7077 9.69479 26.9112 9.6277C27.1146 9.56062 27.2969 9.45109 27.4579 9.29895C27.6175 9.14897 27.7515 8.947 27.8497 8.70862C27.9499 8.46701 28 8.17184 28 7.82295C28 7.49195 27.956 7.2236 27.8679 7.01783C27.7798 6.81213 27.6644 6.64212 27.5216 6.50795C27.3789 6.37377 27.2179 6.26867 27.0388 6.19264C26.8585 6.11617 26.6778 6.04234 26.4966 5.97117C26.2736 5.885 26.0503 5.80003 25.8269 5.71627C25.6355 5.64467 25.4579 5.5597 25.2938 5.46129C25.1359 5.36287 25.0099 5.22201 24.9157 5.03863C24.8216 4.85525 24.7745 4.59358 24.7745 4.25364C24.7745 4.19106 24.7866 4.07919 24.811 3.9182C24.8352 3.75713 24.893 3.59388 24.984 3.42838C25.0751 3.26295 25.2149 3.11533 25.4032 2.98558C25.5915 2.85592 25.8496 2.79101 26.1777 2.79101C26.4025 2.79101 26.6074 2.82685 26.7927 2.89836C26.978 2.96996 27.1374 3.084 27.2711 3.24056C27.4047 3.39713 27.508 3.59613 27.5809 3.83766C27.6538 4.07928 27.6903 4.37444 27.6903 4.72333H27.6902Z" fill="white"/>
</svg>
