<svg width="23" height="23" viewBox="0 0 23 23" fill="none" xmlns="http://www.w3.org/2000/svg">
<path d="M3.43706 16.3494L11.6667 2.09442L12.4056 2.52064L4.17594 16.7756L3.43706 16.3494Z" fill="#E10098"/>
<path d="M3.26672 15.2102H19.7275V16.0634H3.26672V15.2102Z" fill="#E10098"/>
<path d="M3.59231 15.6896L4.01925 14.9507L12.2525 19.7038L11.8256 20.4427L3.59231 15.6896Z" fill="#E10098"/>
<path d="M10.7453 3.29979L11.1722 2.56091L19.4055 7.31473L18.9786 8.0536L10.7453 3.29979Z" fill="#E10098"/>
<path d="M3.59447 7.31259L11.8277 2.55878L12.2547 3.29765L4.0214 8.05146L3.59447 7.31259Z" fill="#E10098"/>
<path d="M10.5965 2.52136L11.3354 2.09442L19.5651 16.3494L18.8269 16.7756L10.5965 2.52136Z" fill="#E10098"/>
<path d="M3.92006 6.74622H4.77322V16.2538H3.92006V6.74622Z" fill="#E10098"/>
<path d="M18.2275 6.74622H19.0807V16.2538H18.2275V6.74622Z" fill="#E10098"/>
<path d="M11.3081 19.4364L18.469 15.3022L18.842 15.9476L11.6811 20.0819L11.3081 19.4364Z" fill="#E10098"/>
<path d="M20.2113 16.5313C20.0339 16.8394 19.7691 17.0881 19.4504 17.2457C19.1317 17.4033 18.7734 17.4628 18.4208 17.4167C18.0683 17.3706 17.7373 17.2209 17.4699 16.9866C17.2024 16.7523 17.0105 16.444 16.9183 16.1006C16.8262 15.7571 16.8381 15.3941 16.9523 15.0574C17.0666 14.7207 17.2782 14.4255 17.5604 14.2092C17.8425 13.9928 18.1825 13.865 18.5373 13.8419C18.8921 13.8189 19.2458 13.9016 19.5536 14.0796C19.9655 14.3179 20.2661 14.7098 20.3894 15.1695C20.5127 15.6291 20.4486 16.1188 20.2113 16.5313" fill="#E10098"/>
<path d="M5.89375 8.26565C5.7164 8.57382 5.45161 8.82245 5.13289 8.98007C4.81418 9.13768 4.45587 9.1972 4.10331 9.15108C3.75075 9.10497 3.4198 8.9553 3.15235 8.72101C2.8849 8.48672 2.69296 8.17836 2.60084 7.83494C2.50872 7.49152 2.52055 7.12849 2.63484 6.7918C2.74913 6.45511 2.96074 6.1599 3.24288 5.94353C3.52503 5.72715 3.86502 5.59935 4.21983 5.57629C4.57464 5.55324 4.92832 5.63596 5.23609 5.814C5.64801 6.05227 5.94858 6.44422 6.07187 6.90383C6.19517 7.36345 6.13111 7.85321 5.89375 8.26565Z" fill="#E10098"/>
<path d="M2.78875 16.5313C2.61071 16.2235 2.52799 15.8698 2.55105 15.515C2.5741 15.1602 2.70191 14.8202 2.91828 14.5381C3.13465 14.2559 3.42987 14.0443 3.76656 13.93C4.10325 13.8157 4.46627 13.8039 4.80969 13.896C5.15311 13.9881 5.46148 14.1801 5.69576 14.4475C5.93005 14.715 6.07972 15.0459 6.12584 15.3985C6.17195 15.751 6.11244 16.1094 5.95482 16.4281C5.79721 16.7468 5.54858 17.0116 5.24041 17.1889C4.82796 17.4263 4.33821 17.4903 3.87859 17.367C3.41897 17.2438 3.02703 16.9432 2.78875 16.5313" fill="#E10098"/>
<path d="M17.1062 8.26564C16.9282 7.95787 16.8455 7.60419 16.8685 7.24938C16.8916 6.89457 17.0194 6.55458 17.2358 6.27243C17.4522 5.99029 17.7474 5.77868 18.0841 5.66439C18.4207 5.5501 18.7838 5.53827 19.1272 5.63039C19.4706 5.72251 19.779 5.91444 20.0133 6.1819C20.2475 6.44935 20.3972 6.7803 20.4433 7.13286C20.4894 7.48541 20.4299 7.84373 20.2723 8.16244C20.1147 8.48116 19.8661 8.74595 19.5579 8.9233C19.1455 9.16065 18.6557 9.22472 18.1961 9.10142C17.7365 8.97813 17.3445 8.67755 17.1062 8.26564" fill="#E10098"/>
<path d="M11.5 21.5625C11.1446 21.5625 10.7972 21.4571 10.5017 21.2597C10.2062 21.0622 9.97591 20.7816 9.8399 20.4533C9.7039 20.1249 9.66832 19.7636 9.73765 19.4151C9.80699 19.0665 9.97812 18.7463 10.2294 18.495C10.4807 18.2437 10.8009 18.0726 11.1494 18.0033C11.498 17.9339 11.8593 17.9695 12.1876 18.1055C12.516 18.2415 12.7966 18.4718 12.994 18.7673C13.1915 19.0628 13.2969 19.4102 13.2969 19.7656C13.2975 20.0018 13.2515 20.2357 13.1614 20.454C13.0714 20.6724 12.9391 20.8707 12.7721 21.0377C12.6051 21.2047 12.4067 21.337 12.1884 21.4271C11.9701 21.5171 11.7362 21.5632 11.5 21.5625" fill="#E10098"/>
<path d="M11.5 5.02478C11.1446 5.02478 10.7972 4.9194 10.5017 4.72195C10.2062 4.52451 9.97591 4.24388 9.8399 3.91554C9.7039 3.5872 9.66832 3.22591 9.73765 2.87735C9.80699 2.52879 9.97812 2.20862 10.2294 1.95732C10.4807 1.70603 10.8009 1.53489 11.1494 1.46556C11.498 1.39622 11.8593 1.43181 12.1876 1.56781C12.516 1.70381 12.7966 1.93412 12.994 2.22962C13.1915 2.52511 13.2969 2.87252 13.2969 3.22791C13.2975 3.46406 13.2515 3.69802 13.1614 3.91633C13.0714 4.13463 12.9391 4.33298 12.7721 4.49997C12.6051 4.66696 12.4067 4.79929 12.1884 4.88935C11.9701 4.97942 11.7362 5.02545 11.5 5.02478" fill="#E10098"/>
</svg>
