<svg width="23" height="33" viewBox="0 0 23 33" fill="none" xmlns="http://www.w3.org/2000/svg">
<path d="M23 6.68616L20.9047 28.3469L11.4859 30.7564L2.09318 28.3503L0 6.68616H23Z" fill="#E44D26"/>
<path d="M11.5 30.8929L19.0843 28.7536L20.8686 8.41516H11.5V30.8929Z" fill="#F16529"/>
<path d="M7.44087 14.2542H11.5V11.3347H4.30505L4.37369 12.1179L5.07897 20.1632H11.5V17.2437H7.70312L7.44087 14.2542Z" fill="#EBEBEB"/>
<path d="M8.08755 21.623H5.20715L5.60911 26.207L11.4868 27.867L11.5 27.8634V24.8259L11.4874 24.8293L8.29185 23.9514L8.08755 21.623Z" fill="#EBEBEB"/>
<path d="M2.17242 0H3.63059V1.4658H4.9645V0H6.42275V4.43882H4.96459V2.95245H3.63068V4.43882H2.17251V0H2.17242Z" fill="white"/>
<path d="M8.34021 1.47202H7.0567V0H11.083V1.47202H9.79864V4.43882H8.34048V1.47202H8.34039H8.34021Z" fill="white"/>
<path d="M11.7219 0H13.2423L14.1776 1.55968L15.112 0H16.6331V4.43882H15.1808V2.2387L14.1776 3.81694H14.1525L13.1486 2.2387V4.43882H11.7219V0Z" fill="white"/>
<path d="M17.3587 0H18.8173V2.97164H20.8679V4.43882H17.3586V0H17.3587Z" fill="white"/>
<path d="M11.4901 20.1632H15.0234L14.6903 23.9495L11.4901 24.8283V27.8656L17.3724 26.2069L17.4155 25.7136L18.0899 18.0277L18.1599 17.2437H11.4901V20.1632Z" fill="white"/>
<path d="M11.4901 14.247V14.2542H18.4209L18.4784 13.598L18.6092 12.1179L18.6778 11.3347H11.4901V14.2471V14.247Z" fill="white"/>
</svg>
