<svg width="26" height="20" viewBox="0 0 26 20" fill="none" xmlns="http://www.w3.org/2000/svg">
<path d="M24.5562 8.44269C25.1479 9.21667 25.1479 10.2615 24.5562 11.0343C22.6924 13.4673 18.2208 18.477 13.0002 18.477C7.77957 18.477 3.30796 13.4673 1.44417 11.0343C1.15628 10.6637 1 10.2078 1 9.73848C1 9.2692 1.15628 8.81329 1.44417 8.44269C3.30796 6.00965 7.77957 1 13.0002 1C18.2208 1 22.6924 6.00965 24.5562 8.44269V8.44269Z" stroke="white" stroke-width="2" stroke-linecap="round" stroke-linejoin="round"/>
<path d="M13.0002 13.4835C15.0685 13.4835 16.7452 11.8068 16.7452 9.73847C16.7452 7.67013 15.0685 5.99341 13.0002 5.99341C10.9318 5.99341 9.2551 7.67013 9.2551 9.73847C9.2551 11.8068 10.9318 13.4835 13.0002 13.4835Z" stroke="white" stroke-width="2" stroke-linecap="round" stroke-linejoin="round"/>
</svg>
