<svg width="43" height="12" viewBox="0 0 43 12" fill="none" xmlns="http://www.w3.org/2000/svg">
<g clip-path="url(#clip0)">
<path fill-rule="evenodd" clip-rule="evenodd" d="M39.1819 4.96945C39.1441 4.97701 39.1061 5.06044 39.1061 5.10589C39.0985 5.40934 39.091 6.21334 39.091 6.75942C39.091 6.77462 39.1136 6.80495 39.1364 6.80495C39.2502 6.81252 39.5232 6.82008 39.7584 6.82008C40.0845 6.82008 40.2741 6.77463 40.3804 6.72917C40.6533 6.59257 40.7823 6.29676 40.7823 5.97054C40.7823 5.23493 40.2665 4.95425 39.5004 4.95425C39.4473 4.94668 39.2958 4.94668 39.1819 4.96945ZM41.1389 8.35985C41.1389 7.60895 40.5851 7.19175 39.5839 7.19175C39.5384 7.19175 39.2198 7.18419 39.144 7.19931C39.1212 7.20695 39.091 7.22216 39.091 7.24493C39.091 7.78336 39.0833 8.64054 39.1061 8.97424C39.1212 9.11832 39.2275 9.32314 39.3564 9.3838C39.4929 9.45966 39.8039 9.47478 40.0163 9.47478C40.6155 9.47478 41.1389 9.14109 41.1389 8.35985ZM37.6347 4.55233C37.7105 4.55233 37.938 4.57501 38.522 4.57501C39.0758 4.57501 39.5156 4.55989 40.0542 4.55989C40.714 4.55989 41.6242 4.79496 41.6242 5.78101C41.6242 6.26643 41.2829 6.65331 40.8354 6.84293C40.8127 6.85049 40.8127 6.86561 40.8354 6.87317C41.4725 7.03254 42.0338 7.4269 42.0338 8.17016C42.0338 8.89837 41.5787 9.36103 40.9188 9.64928C40.5168 9.82369 40.0163 9.88435 39.5081 9.88435C39.1212 9.88435 38.0821 9.83889 37.5057 9.8541C37.4451 9.83125 37.5588 9.55821 37.6118 9.51276C37.7484 9.50511 37.8545 9.49755 37.9987 9.45202C38.2035 9.399 38.2262 9.33826 38.2565 9.02733C38.2718 8.76185 38.2718 7.82125 38.2718 7.15386C38.2718 6.23611 38.2794 5.61416 38.2718 5.31079C38.2642 5.07572 38.1808 4.99978 38.0139 4.95425C37.8849 4.93156 37.6726 4.90115 37.4981 4.87846C37.4601 4.84049 37.5891 4.58257 37.6347 4.55233ZM33.2581 9.27004C33.4403 9.41404 33.7967 9.4747 34.1153 9.4747C34.5249 9.4747 34.9344 9.399 35.3289 9.04237C35.7309 8.67843 36.0115 8.11714 36.0115 7.22216C36.0115 6.36498 35.6853 5.66718 35.0179 5.2577C34.6386 5.02246 34.1532 4.924 33.5919 4.924C33.4251 4.924 33.2658 4.93156 33.1672 4.97701C33.1444 4.99222 33.0914 5.06044 33.0914 5.09833C33.0762 5.25005 33.0762 6.41808 33.0762 7.10076C33.0762 7.80613 33.0762 8.79218 33.0914 8.90594C33.0914 9.01977 33.1444 9.19418 33.2582 9.27004H33.2581ZM31.5364 4.55225C31.6805 4.55225 32.2342 4.57501 32.4997 4.57501C32.9776 4.57501 33.3189 4.55233 34.2214 4.55233C34.9799 4.55233 35.617 4.75707 36.0721 5.14386C36.6258 5.62172 36.9141 6.28164 36.9141 7.08556C36.9141 8.2309 36.3907 8.89081 35.8673 9.27004C35.3441 9.65684 34.6614 9.88435 33.6906 9.88435C33.1748 9.88435 32.2874 9.86922 31.5516 9.86158H31.544C31.5061 9.79336 31.6047 9.52788 31.6653 9.52032C31.8626 9.49755 31.9157 9.48991 32.0143 9.4521C32.1735 9.39136 32.2039 9.30794 32.2267 9.02733C32.2494 8.50394 32.2418 7.87443 32.2418 7.16142C32.2418 6.65331 32.2494 5.65961 32.2342 5.34104C32.2115 5.07564 32.0978 5.00734 31.8702 4.96181C31.7564 4.93912 31.6047 4.90871 31.3924 4.88603C31.362 4.83285 31.4985 4.59778 31.5364 4.55233V4.55225Z" fill="white"/>
<path fill-rule="evenodd" clip-rule="evenodd" d="M22.3589 9.56582C22.1693 9.54305 22.0327 9.51281 21.8659 9.43694C21.8431 9.42174 21.8051 9.34596 21.8051 9.31555C21.79 9.05007 21.79 8.2916 21.79 7.78349C21.79 7.37385 21.7218 7.01738 21.5473 6.76711C21.3425 6.47878 21.0468 6.31201 20.6674 6.31201C20.3337 6.31201 19.8862 6.53952 19.5145 6.85809C19.507 6.86566 19.4463 6.91883 19.4539 6.83533C19.4539 6.7519 19.4691 6.58505 19.4767 6.47122C19.4843 6.36503 19.4236 6.31201 19.4236 6.31201C19.1808 6.43333 18.4982 6.59261 18.2479 6.6153C18.0659 6.65335 18.0204 6.82777 18.2101 6.88842H18.2176C18.4223 6.94908 18.5589 7.01738 18.665 7.08568C18.7409 7.14634 18.7333 7.22976 18.7333 7.29807C18.7409 7.86683 18.7409 8.73913 18.7182 9.217C18.7106 9.40661 18.6575 9.47483 18.5209 9.50516L18.5361 9.4976C18.4299 9.52037 18.3465 9.54305 18.2176 9.55826C18.172 9.60379 18.172 9.8465 18.2176 9.8996C18.301 9.8996 18.7409 9.87683 19.1051 9.87683C19.6056 9.87683 19.8635 9.8996 19.9924 9.8996C20.0455 9.83894 20.0607 9.61135 20.0304 9.55826C19.8862 9.5507 19.78 9.53557 19.6815 9.50516C19.545 9.47475 19.507 9.40661 19.4993 9.24733C19.4843 8.84524 19.4843 7.99579 19.4843 7.41938C19.4843 7.26009 19.5297 7.18423 19.5752 7.1387C19.7497 6.98705 20.0304 6.88086 20.2807 6.88086C20.5234 6.88086 20.6826 6.95672 20.804 7.05535C20.9708 7.19179 21.0239 7.38905 21.0467 7.53313C21.0846 7.85927 21.0694 8.50398 21.0694 9.06527C21.0694 9.36864 21.0467 9.4445 20.933 9.48239C20.8798 9.50516 20.7433 9.53557 20.584 9.55061C20.5309 9.60379 20.5461 9.83894 20.584 9.89204C20.804 9.89204 21.0619 9.86927 21.4411 9.86927C21.9113 9.86927 22.2148 9.89204 22.3362 9.89204C22.374 9.8465 22.3892 9.62656 22.3589 9.56582ZM24.4599 6.66856C24.0579 6.66856 23.8076 6.97949 23.8076 7.46483C23.8076 7.9579 24.0275 8.52675 24.6495 8.52675C24.7557 8.52675 24.9529 8.48122 25.0438 8.37503C25.188 8.23859 25.2866 7.96546 25.2866 7.67722C25.2866 7.04771 24.9756 6.66848 24.4599 6.66848V6.66856ZM24.4068 10.0209C24.2551 10.0209 24.1488 10.0664 24.0806 10.1044C23.762 10.3091 23.618 10.5063 23.618 10.7416C23.618 10.9614 23.7014 11.1358 23.8834 11.2876C24.1034 11.4772 24.4068 11.5683 24.7936 11.5683C25.5672 11.5683 25.9086 11.1511 25.9086 10.7416C25.9086 10.4532 25.7644 10.2636 25.4687 10.1575C25.2563 10.0664 24.8695 10.0209 24.4068 10.0209ZM24.4599 11.993C23.9972 11.993 23.6634 11.8944 23.3753 11.6744C23.0946 11.4621 22.9733 11.1435 22.9733 10.9235C22.9733 10.8629 22.9885 10.696 23.125 10.5443C23.2083 10.4532 23.3905 10.2788 23.8228 9.98302C23.8379 9.97546 23.8455 9.9679 23.8455 9.95261C23.8455 9.93749 23.8303 9.92228 23.8151 9.91481C23.4587 9.77828 23.3525 9.55826 23.3221 9.43694V9.42174C23.3146 9.3762 23.2994 9.33075 23.3677 9.28522C23.4208 9.24733 23.4967 9.20179 23.58 9.14878C23.709 9.07283 23.8455 8.98941 23.9289 8.92111C23.9441 8.90598 23.9441 8.89086 23.9441 8.87565C23.9441 8.86045 23.9289 8.84524 23.9137 8.83776C23.3829 8.66327 23.1174 8.26883 23.1174 7.67722C23.1174 7.29042 23.2918 6.94152 23.6028 6.72157C23.8151 6.55472 24.3461 6.3499 24.695 6.3499H24.7178C25.0742 6.35746 25.2714 6.43333 25.552 6.53196C25.7037 6.58505 25.8479 6.60774 26.0452 6.60774C26.3409 6.60774 26.4699 6.51675 26.576 6.41064C26.5836 6.42577 26.5988 6.46374 26.6064 6.56229C26.6139 6.66092 26.5836 6.805 26.5077 6.91119C26.4471 6.99461 26.3106 7.05535 26.174 7.05535H26.1361C25.9996 7.04015 25.9388 7.02494 25.9388 7.02494L25.9086 7.04015C25.901 7.05535 25.9086 7.07048 25.9161 7.09324L25.9238 7.10845C25.9389 7.17667 25.9692 7.38141 25.9692 7.43459C25.9692 8.05653 25.719 8.32949 25.4535 8.53431C25.1956 8.72393 24.8998 8.84524 24.566 8.87565C24.5585 8.87565 24.5282 8.87566 24.4599 8.88322C24.422 8.88322 24.3689 8.89086 24.3612 8.89086H24.3537C24.293 8.90598 24.1414 8.98185 24.1414 9.11072C24.1414 9.22448 24.2096 9.36108 24.5357 9.38385C24.6039 9.39141 24.6722 9.39141 24.7481 9.39905C25.1804 9.4293 25.719 9.46727 25.9692 9.5507C26.3181 9.67957 26.5381 9.99059 26.5381 10.3623C26.5381 10.9236 26.1362 11.4469 25.4687 11.773C25.1425 11.9172 24.8163 11.993 24.4599 11.993ZM28.7831 6.70645C28.6239 6.70645 28.4798 6.74426 28.3736 6.82012C28.0779 7.00218 27.9261 7.36629 27.9261 7.89716C27.9261 8.89086 28.4267 9.58867 29.1397 9.58867C29.3521 9.58867 29.5189 9.52793 29.663 9.40661C29.8829 9.22448 29.9968 8.86045 29.9968 8.35226C29.9968 7.36629 29.5037 6.70637 28.7832 6.70637L28.7831 6.70645ZM28.9197 9.9527C27.6303 9.9527 27.1677 9.00461 27.1677 8.11719C27.1677 7.49524 27.4179 7.01738 27.9185 6.67604C28.275 6.45609 28.6998 6.33478 29.079 6.33478C30.065 6.33478 30.7552 7.04015 30.7552 8.05653C30.7552 8.7467 30.4822 9.29278 29.9588 9.62656C29.7085 9.79341 29.2762 9.9527 28.9197 9.9527H28.9197ZM15.4036 6.70637C15.2444 6.70637 15.1003 6.74426 14.994 6.82012C14.6983 7.00218 14.5465 7.36629 14.5465 7.89716C14.5465 8.89086 15.0471 9.58867 15.7601 9.58867C15.9725 9.58867 16.1393 9.52793 16.2835 9.40661C16.5034 9.22448 16.6172 8.86045 16.6172 8.35226C16.6172 7.36629 16.1318 6.70637 15.4036 6.70637ZM15.5402 9.9527C14.2507 9.9527 13.7881 9.00461 13.7881 8.11719C13.7881 7.49524 14.0384 7.01738 14.5389 6.67604C14.8954 6.45609 15.3202 6.33478 15.6994 6.33478C16.6855 6.33478 17.3757 7.04015 17.3757 8.05653C17.3757 8.7467 17.1026 9.29278 16.5792 9.62656C16.3365 9.79341 15.9042 9.9527 15.5402 9.9527ZM6.87074 9.87683C6.85554 9.85415 6.84033 9.78585 6.84797 9.70242C6.84797 9.64168 6.86318 9.60379 6.87074 9.58867C7.03003 9.56582 7.11345 9.54305 7.20444 9.52037C7.35617 9.48239 7.41682 9.39905 7.42439 9.20944C7.44723 8.75434 7.44723 7.8896 7.43959 7.29042V7.27522C7.43959 7.207 7.43959 7.12349 7.35617 7.06283C7.23477 6.98705 7.09069 6.91883 6.90107 6.86557C6.83285 6.84297 6.78732 6.805 6.79488 6.75955C6.79488 6.71401 6.84041 6.66092 6.93904 6.64571C7.18932 6.62294 7.84151 6.46374 8.09943 6.3499C8.11463 6.36503 8.1374 6.41064 8.1374 6.4713L8.12984 6.55464C8.12219 6.63815 8.11463 6.73678 8.11463 6.83533C8.11463 6.86566 8.14504 6.88842 8.17529 6.88842C8.19049 6.88842 8.2057 6.88086 8.22082 6.87322C8.70625 6.49398 9.14614 6.35746 9.37364 6.35746C9.7454 6.35746 10.0336 6.53196 10.2536 6.89598C10.2687 6.91883 10.2839 6.9264 10.3067 6.9264C10.3218 6.9264 10.3445 6.91883 10.3521 6.90363C10.7997 6.56229 11.2472 6.35746 11.5429 6.35746C12.2483 6.35746 12.6655 6.88086 12.6655 7.76829C12.6655 8.01856 12.6655 8.3447 12.6579 8.64059C12.6579 8.90598 12.6504 9.1487 12.6504 9.32319C12.6504 9.361 12.7034 9.48239 12.7868 9.50516C12.893 9.55826 13.0372 9.58102 13.2268 9.61135H13.2344C13.2496 9.66445 13.2192 9.86163 13.1889 9.8996C13.1434 9.8996 13.0751 9.8996 12.9993 9.89204C12.8073 9.88202 12.6151 9.87695 12.4228 9.87683C11.9526 9.87683 11.7099 9.88439 11.4746 9.8996C11.4596 9.83894 11.4519 9.65689 11.4746 9.61135C11.6112 9.58867 11.6795 9.56582 11.763 9.54313C11.9147 9.4976 11.9526 9.4293 11.9602 9.23212C11.9602 9.08804 11.9905 7.85927 11.9449 7.56346C11.8995 7.26009 11.6719 6.90363 11.1713 6.90363C10.9816 6.90363 10.6859 6.97949 10.3977 7.19935C10.3825 7.21456 10.3673 7.25245 10.3673 7.27522V7.28286C10.3977 7.44207 10.3977 7.6242 10.3977 7.90481V8.39779C10.3977 8.73913 10.39 9.05771 10.3977 9.30034C10.3977 9.46727 10.4963 9.50516 10.5797 9.53557C10.6253 9.54305 10.6555 9.5507 10.6935 9.55826C10.7617 9.57346 10.83 9.58867 10.9362 9.61135C10.9514 9.64176 10.9514 9.74031 10.9286 9.82374C10.921 9.86927 10.9058 9.89196 10.8982 9.8996C10.6404 9.89204 10.3749 9.88439 9.98811 9.88439C9.87436 9.88439 9.6771 9.89204 9.51025 9.89204C9.37364 9.89204 9.24477 9.8996 9.16899 9.8996C9.16134 9.88439 9.14614 9.83138 9.14614 9.74787C9.14614 9.67965 9.16134 9.62656 9.17655 9.61135C9.21444 9.60379 9.24477 9.59623 9.28274 9.59623C9.37364 9.58102 9.44959 9.56582 9.52537 9.5507C9.65441 9.51281 9.69986 9.4445 9.70743 9.27765C9.73019 8.89842 9.75296 7.81382 9.69986 7.5407C9.60888 7.10081 9.3586 6.88086 8.95652 6.88086C8.72145 6.88086 8.42556 6.99461 8.18293 7.17675C8.14496 7.207 8.11463 7.28278 8.11463 7.35108V7.79861C8.11463 8.3447 8.11463 9.02738 8.12219 9.32319C8.12984 9.41409 8.16008 9.52037 8.33458 9.55826C8.37255 9.56582 8.43321 9.58102 8.50907 9.58867L8.64551 9.61135C8.6608 9.65689 8.65315 9.83894 8.62282 9.8996C8.54696 9.8996 8.45597 9.89204 8.3497 9.89204C8.19049 9.88439 7.98567 9.87683 7.75817 9.87683C7.49269 9.87683 7.30307 9.88439 7.15134 9.89204C7.04515 9.87683 6.96173 9.87683 6.87074 9.87683Z" fill="white"/>
<path fill-rule="evenodd" clip-rule="evenodd" d="M2.88107 11.6973L2.57014 11.591C2.57014 11.591 2.60811 10.0058 2.03918 9.89208C1.66003 9.45211 2.1 -8.7665 3.4652 9.83134C3.4652 9.83134 2.9949 10.0664 2.91148 10.4685C2.82041 10.8629 2.88107 11.6973 2.88107 11.6973Z" fill="white"/>
<path fill-rule="evenodd" clip-rule="evenodd" d="M2.88107 11.6973L2.57014 11.591C2.57014 11.591 2.60811 10.0058 2.03918 9.89208C1.66003 9.45211 2.1 -8.7665 3.4652 9.83134C3.4652 9.83134 2.9949 10.0664 2.91148 10.4685C2.82041 10.8629 2.88107 11.6973 2.88107 11.6973Z" fill="#A6A385"/>
<path fill-rule="evenodd" clip-rule="evenodd" d="M3.04801 10.1651C3.04801 10.1651 5.77102 8.375 5.13379 4.6508C4.51948 1.94316 3.07077 1.05574 2.91149 0.714394C2.73707 0.471682 2.57014 0.0469971 2.57014 0.0469971L2.68398 7.57856C2.68398 7.5862 2.44883 9.88437 3.04809 10.1651" fill="white"/>
<path fill-rule="evenodd" clip-rule="evenodd" d="M3.04801 10.1651C3.04801 10.1651 5.77102 8.375 5.13379 4.6508C4.51948 1.94316 3.07077 1.05574 2.91149 0.714394C2.73707 0.471682 2.57014 0.0469971 2.57014 0.0469971L2.68398 7.57856C2.68398 7.5862 2.44883 9.88437 3.04809 10.1651" fill="#499D4A"/>
<path fill-rule="evenodd" clip-rule="evenodd" d="M2.41093 10.2636C2.41093 10.2636 -0.145229 8.5191 0.00649678 5.44734C0.150579 2.37551 1.95576 0.866136 2.30466 0.593095C2.53225 0.350382 2.53981 0.259314 2.55502 0.0166016C2.7143 0.357944 2.68398 5.1212 2.70666 5.68241C2.77488 7.84405 2.58535 9.85414 2.41093 10.2636Z" fill="white"/>
<path fill-rule="evenodd" clip-rule="evenodd" d="M2.41093 10.2636C2.41093 10.2636 -0.145229 8.5191 0.00649678 5.44734C0.150579 2.37551 1.95576 0.866136 2.30466 0.593095C2.53225 0.350382 2.53981 0.259314 2.55502 0.0166016C2.7143 0.357944 2.68398 5.1212 2.70666 5.68241C2.77488 7.84405 2.58535 9.85414 2.41093 10.2636Z" fill="#58AA50"/>
</g>
<defs>
<clipPath id="clip0">
<rect width="42.0822" height="12" fill="white"/>
</clipPath>
</defs>
</svg>
