<svg width="15" height="16" viewBox="0 0 15 16" fill="none" xmlns="http://www.w3.org/2000/svg">
<path fill-rule="evenodd" clip-rule="evenodd" d="M2.15867e-07 7.49972C4.83117e-05 6.20555 0.334979 4.93342 0.972226 3.80701C1.60947 2.68061 2.52735 1.73826 3.6366 1.07161C4.74586 0.404961 6.00875 0.0366879 7.30247 0.00260227C8.59619 -0.0314833 9.87671 0.269778 11.0195 0.877095C12.1624 1.48441 13.1286 2.37711 13.8243 3.4684C14.5199 4.55969 14.9214 5.81242 14.9896 7.10479C15.0578 8.39716 14.7904 9.68519 14.2134 10.8436C13.6365 12.0021 12.7696 12.9915 11.697 13.7157L4.907 4.20972C4.84548 4.12351 4.75816 4.05905 4.65765 4.02566C4.55714 3.99226 4.44861 3.99165 4.34773 4.02391C4.24684 4.05616 4.1588 4.11962 4.09631 4.20514C4.03382 4.29065 4.00009 4.39381 4 4.49972V11.9997H5V6.05972L10.83 14.2217C9.6864 14.7884 8.41711 15.0539 7.14227 14.993C5.86742 14.9321 4.6292 14.5469 3.54481 13.8738C2.46041 13.2008 1.56572 12.2621 0.945406 11.1467C0.325096 10.0313 -0.000305962 8.77602 2.15867e-07 7.49972V7.49972ZM10 9.99972V3.99972H11V9.99972H10Z" fill="white"/>
</svg>
