<svg width="28" height="18" viewBox="0 0 28 18" fill="none" xmlns="http://www.w3.org/2000/svg">
<g clip-path="url(#clip0)">
<path d="M13.842 17.1223C13.7472 17.1223 13.6587 17.097 13.5765 17.0528L12.7359 16.5535C12.6095 16.4839 12.6727 16.4587 12.7106 16.446C12.8813 16.3892 12.9129 16.3765 13.0898 16.2754C13.1088 16.2627 13.1341 16.2691 13.1531 16.2817L13.7978 16.6673C13.823 16.6799 13.8546 16.6799 13.8736 16.6673L16.3955 15.2072C16.4207 15.1946 16.4334 15.1693 16.4334 15.1377V12.224C16.4334 12.1923 16.4207 12.1671 16.3955 12.1544L13.8736 10.7007C13.8483 10.688 13.8167 10.688 13.7978 10.7007L11.2758 12.1544C11.2506 12.167 11.2379 12.1986 11.2379 12.2239V15.1376C11.2379 15.163 11.2506 15.1945 11.2758 15.2072L11.9648 15.6054C12.3377 15.795 12.5716 15.5738 12.5716 15.3526V12.4767C12.5716 12.4388 12.6032 12.4009 12.6474 12.4009H12.9697C13.0077 12.4009 13.0456 12.4325 13.0456 12.4767V15.3526C13.0456 15.8519 12.7738 16.1426 12.2998 16.1426C12.1544 16.1426 12.0407 16.1426 11.7183 15.9846L11.0546 15.6054C10.8903 15.5106 10.7892 15.3336 10.7892 15.144V12.2302C10.7892 12.0406 10.8903 11.8636 11.0546 11.7688L13.5765 10.3088C13.7345 10.2203 13.9495 10.2203 14.1075 10.3088L16.6293 11.7688C16.7937 11.8636 16.8948 12.0406 16.8948 12.2302V15.144C16.8948 15.3336 16.7937 15.5106 16.6293 15.6054L14.1075 17.0654C14.0253 17.1034 13.9305 17.1223 13.842 17.1223H13.842ZM14.6194 15.1187C13.5133 15.1187 13.2858 14.6131 13.2858 14.1833C13.2858 14.1453 13.3174 14.1074 13.3616 14.1074H13.6903C13.7282 14.1074 13.7598 14.1327 13.7598 14.1707C13.8104 14.5056 13.9558 14.67 14.6257 14.67C15.1566 14.67 15.3842 14.5499 15.3842 14.2654C15.3842 14.1011 15.321 13.9811 14.493 13.8989C13.8041 13.8293 13.3743 13.6777 13.3743 13.1278C13.3743 12.6158 13.8041 12.3124 14.5246 12.3124C15.3336 12.3124 15.7318 12.5905 15.7824 13.1972C15.7824 13.2163 15.7761 13.2352 15.7635 13.2542C15.7508 13.2668 15.7318 13.2794 15.7129 13.2794H15.3842C15.3526 13.2794 15.321 13.2542 15.3147 13.2225C15.2388 12.875 15.0429 12.7611 14.5246 12.7611C13.9431 12.7611 13.8736 12.9634 13.8736 13.1151C13.8736 13.2984 13.9558 13.3553 14.7395 13.4564C15.5169 13.5576 15.8835 13.7029 15.8835 14.2465C15.8772 14.8027 15.4221 15.1187 14.6194 15.1187Z" fill="#539E43"/>
<path d="M6.01715 5.72645C6.01715 5.6127 5.95394 5.50518 5.85282 5.4483L3.17291 3.90611C3.12862 3.88079 3.07808 3.86816 3.02755 3.86182H3.00223C2.9517 3.86182 2.90112 3.88079 2.85687 3.90611L0.176966 5.4483C0.0757945 5.50518 0.0126305 5.61264 0.0126305 5.72645L0.0189742 9.8727C0.0189742 9.92957 0.0505836 9.98645 0.101115 10.0118C0.151701 10.0434 0.214865 10.0434 0.259162 10.0118L1.85194 9.1016C1.95305 9.04473 2.01627 8.93727 2.01627 8.82352V6.88309C2.01627 6.76934 2.07944 6.66188 2.18061 6.605L2.85687 6.21311C2.90746 6.1815 2.96433 6.16881 3.02121 6.16881C3.07808 6.16881 3.13496 6.1815 3.17926 6.21311L3.85552 6.605C3.95669 6.66188 4.01986 6.76928 4.01986 6.88309V8.82352C4.01986 8.93727 4.08308 9.04473 4.18419 9.1016L5.77697 10.0118C5.82755 10.0434 5.89072 10.0434 5.9413 10.0118C5.99189 9.98645 6.0235 9.92957 6.0235 9.8727L6.01715 5.72645Z" fill="white"/>
<path d="M18.8984 0.0189902C18.8479 -0.00633007 18.7847 -0.00633007 18.7404 0.0189902C18.6898 0.0505995 18.6582 0.101131 18.6582 0.158006V4.2664C18.6582 4.3043 18.6393 4.3422 18.6014 4.36752C18.5635 4.38644 18.5255 4.38644 18.4876 4.36752L17.8176 3.98197C17.7685 3.954 17.713 3.9393 17.6564 3.9393C17.5999 3.9393 17.5444 3.954 17.4953 3.98197L14.8153 5.5305C14.7142 5.58737 14.651 5.69483 14.651 5.80858V8.8993C14.651 9.01305 14.7142 9.12056 14.8153 9.17744L17.4953 10.726C17.5444 10.7539 17.5999 10.7686 17.6564 10.7686C17.713 10.7686 17.7685 10.7539 17.8176 10.726L20.4975 9.17744C20.5987 9.12056 20.6619 9.0131 20.6619 8.8993V1.19461C20.6619 1.07451 20.5987 0.967106 20.4975 0.910176L18.8985 0.0189902H18.8984ZM18.6519 7.88173C18.6519 7.91334 18.6393 7.9386 18.614 7.95124L17.6975 8.48214C17.6847 8.48839 17.6707 8.49163 17.6564 8.49163C17.6422 8.49163 17.6281 8.48839 17.6153 8.48214L16.6989 7.95124C16.6736 7.9386 16.6609 7.90699 16.6609 7.88173V6.81986C16.6609 6.78825 16.6736 6.76299 16.6989 6.75036L17.6153 6.2194C17.6281 6.21315 17.6422 6.20991 17.6564 6.20991C17.6707 6.20991 17.6847 6.21315 17.6975 6.2194L18.614 6.75036C18.6393 6.76293 18.6519 6.7946 18.6519 6.81986V7.88173Z" fill="white"/>
<path d="M27.8167 6.79468C27.9179 6.7378 27.9747 6.63034 27.9747 6.51653V5.76442C27.9747 5.65067 27.9115 5.54321 27.8167 5.48633L25.1558 3.94415C25.1067 3.91619 25.0511 3.90149 24.9946 3.90149C24.9381 3.90149 24.8826 3.91619 24.8334 3.94415L22.1535 5.49262C22.0524 5.5495 21.9892 5.65696 21.9892 5.77076V8.86148C21.9892 8.97523 22.0524 9.08269 22.1535 9.13956L24.8145 10.6565C24.9156 10.7134 25.0357 10.7134 25.1305 10.6565L26.7422 9.75906C26.7928 9.73374 26.8244 9.67687 26.8244 9.61999C26.8244 9.56312 26.7928 9.50624 26.7422 9.48092L24.0497 7.93239C23.9991 7.90084 23.9675 7.85025 23.9675 7.79338V6.82634C23.9675 6.76946 23.9991 6.71259 24.0497 6.68727L24.8903 6.20689C24.9149 6.19141 24.9434 6.18319 24.9725 6.18319C25.0016 6.18319 25.03 6.19141 25.0547 6.20689L25.8953 6.68727C25.9458 6.71888 25.9775 6.76941 25.9775 6.82634V7.5848C25.9775 7.64167 26.0091 7.69855 26.0596 7.72381C26.1102 7.75542 26.1733 7.75542 26.2239 7.72381L27.8167 6.79468Z" fill="white"/>
<path d="M24.9535 6.64924C24.9629 6.64306 24.9739 6.63977 24.9851 6.63977C24.9963 6.63977 25.0073 6.64306 25.0167 6.64924L25.5287 6.9463C25.5476 6.95887 25.5603 6.97785 25.5603 7.00317V7.59729C25.5603 7.62256 25.5476 7.64153 25.5287 7.65417L25.0167 7.95123C25.0073 7.9574 24.9963 7.96069 24.9851 7.96069C24.9739 7.96069 24.9629 7.9574 24.9535 7.95123L24.4415 7.65417C24.4225 7.64153 24.4099 7.62256 24.4099 7.59729V7.00317C24.4099 6.97785 24.4225 6.95887 24.4415 6.9463L24.9535 6.64924Z" fill="#539E43"/>
<mask id="mask0" mask-type="alpha" maskUnits="userSpaceOnUse" x="7" y="3" width="7" height="8">
<path d="M10.4984 3.95672C10.4493 3.92876 10.3938 3.91406 10.3372 3.91406C10.2807 3.91406 10.2252 3.92876 10.1761 3.95672L7.51515 5.49251C7.41398 5.54939 7.35711 5.65685 7.35711 5.7706V8.84874C7.35711 8.96249 7.42032 9.06995 7.51515 9.12683L10.1761 10.6627C10.2252 10.6907 10.2807 10.7054 10.3372 10.7054C10.3938 10.7054 10.4493 10.6907 10.4984 10.6627L13.1594 9.12683C13.2605 9.06995 13.3174 8.96249 13.3174 8.84874V5.77065C13.3174 5.6569 13.2542 5.54944 13.1594 5.49257L10.4984 3.95672Z" fill="white"/>
</mask>
<g mask="url(#mask0)">
<path d="M10.4984 3.95672C10.4493 3.92876 10.3938 3.91406 10.3372 3.91406C10.2807 3.91406 10.2252 3.92876 10.1761 3.95672L7.51515 5.49251C7.41398 5.54939 7.35711 5.65685 7.35711 5.7706V8.84874C7.35711 8.96249 7.42032 9.06995 7.51515 9.12683L10.1761 10.6627C10.2252 10.6907 10.2807 10.7054 10.3372 10.7054C10.3938 10.7054 10.4493 10.6907 10.4984 10.6627L13.1594 9.12683C13.2605 9.06995 13.3174 8.96249 13.3174 8.84874V5.77065C13.3174 5.6569 13.2542 5.54944 13.1594 5.49257L10.4984 3.95672Z" fill="url(#paint0_linear)"/>
<path d="M13.1657 5.4925L10.4921 3.95666C10.4659 3.94339 10.4383 3.9328 10.4099 3.92505L7.41399 9.05736C7.4388 9.08766 7.46878 9.11334 7.50253 9.13321L10.1761 10.6691C10.2519 10.7134 10.3404 10.726 10.4226 10.7007L13.2353 5.55578C13.2163 5.53051 13.191 5.51148 13.1657 5.49256V5.4925Z" fill="url(#paint1_linear)"/>
<path fill-rule="evenodd" clip-rule="evenodd" d="M13.172 9.12695C13.2479 9.08271 13.3048 9.00685 13.3301 8.92471L10.3972 3.91884C10.3214 3.90621 10.2392 3.91249 10.1697 3.95674L7.5151 5.48635L10.3783 10.7071C10.4199 10.7003 10.4603 10.6875 10.4984 10.6692L13.172 9.127L13.172 9.12695Z" fill="url(#paint2_linear)"/>
<path fill-rule="evenodd" clip-rule="evenodd" d="M13.172 9.12691L10.5048 10.6628C10.4671 10.682 10.4265 10.6948 10.3847 10.7007L10.4353 10.7955L13.3932 9.08273V9.04477L13.3174 8.91833C13.3048 9.00682 13.2479 9.08267 13.172 9.12691Z" fill="url(#paint3_linear)"/>
<path fill-rule="evenodd" clip-rule="evenodd" d="M13.172 9.12691L10.5048 10.6628C10.4671 10.682 10.4265 10.6948 10.3847 10.7007L10.4353 10.7955L13.3932 9.08273V9.04477L13.3174 8.91833C13.3048 9.00682 13.2479 9.08267 13.172 9.12691Z" fill="url(#paint4_linear)"/>
</g>
</g>
<defs>
<linearGradient id="paint0_linear" x1="11.4213" y1="5.10166" x2="8.5047" y2="9.68456" gradientUnits="userSpaceOnUse">
<stop stop-color="#41873F"/>
<stop offset="0.3288" stop-color="#418B3D"/>
<stop offset="0.6352" stop-color="#419637"/>
<stop offset="0.9319" stop-color="#3FA92D"/>
<stop offset="1" stop-color="#3FAE2A"/>
</linearGradient>
<linearGradient id="paint1_linear" x1="9.93326" y1="7.67021" x2="17.2378" y2="3.70161" gradientUnits="userSpaceOnUse">
<stop offset="0.1376" stop-color="#41873F"/>
<stop offset="0.4032" stop-color="#54A044"/>
<stop offset="0.7136" stop-color="#66B848"/>
<stop offset="0.9081" stop-color="#6CC04A"/>
</linearGradient>
<linearGradient id="paint2_linear" x1="7.25988" y1="7.30988" x2="13.4172" y2="7.30988" gradientUnits="userSpaceOnUse">
<stop offset="0.09192" stop-color="#6CC04A"/>
<stop offset="0.2864" stop-color="#66B848"/>
<stop offset="0.5968" stop-color="#54A044"/>
<stop offset="0.8624" stop-color="#41873F"/>
</linearGradient>
<linearGradient id="paint3_linear" x1="7.25992" y1="9.86209" x2="13.4172" y2="9.86209" gradientUnits="userSpaceOnUse">
<stop offset="0.09192" stop-color="#6CC04A"/>
<stop offset="0.2864" stop-color="#66B848"/>
<stop offset="0.5968" stop-color="#54A044"/>
<stop offset="0.8624" stop-color="#41873F"/>
</linearGradient>
<linearGradient id="paint4_linear" x1="14.3143" y1="4.95616" x2="12.7544" y2="13.1299" gradientUnits="userSpaceOnUse">
<stop stop-color="#41873F"/>
<stop offset="0.3288" stop-color="#418B3D"/>
<stop offset="0.6352" stop-color="#419637"/>
<stop offset="0.9319" stop-color="#3FA92D"/>
<stop offset="1" stop-color="#3FAE2A"/>
</linearGradient>
<clipPath id="clip0">
<rect width="28" height="17.1719" fill="white"/>
</clipPath>
</defs>
</svg>
