<svg width="23" height="21" viewBox="0 0 23 21" fill="none" xmlns="http://www.w3.org/2000/svg">
<path d="M18.9106 6.63261C18.6658 6.54863 18.419 6.47083 18.1703 6.39928C18.212 6.22858 18.2505 6.05995 18.2846 5.89427C18.8451 3.17372 18.4787 0.981976 17.2273 0.260352C16.0274 -0.431445 14.0651 0.28991 12.0834 2.01464C11.888 2.18492 11.6971 2.36012 11.5106 2.54005C11.3858 2.4204 11.2587 2.30307 11.1296 2.18813C9.05257 0.343996 6.97071 -0.433242 5.72062 0.290449C4.52184 0.984402 4.16686 3.04479 4.67143 5.62313C4.72162 5.87848 4.7783 6.13252 4.84141 6.385C4.54672 6.46873 4.26237 6.55786 3.99023 6.65273C1.55511 7.50176 0 8.83225 0 10.2123C0 11.6377 1.66948 13.0674 4.20577 13.9343C4.41139 14.0043 4.61872 14.0692 4.82757 14.1288C4.75974 14.4007 4.69953 14.6745 4.64699 14.9498C4.16596 17.4834 4.5416 19.4951 5.73715 20.1846C6.97196 20.8967 9.04448 20.1649 11.0625 18.4008C11.2261 18.2574 11.3861 18.1099 11.5424 17.9585C11.7443 18.1533 11.9517 18.3425 12.1641 18.5258C14.1189 20.2078 16.0495 20.887 17.2439 20.1956C18.4775 19.4814 18.8785 17.3203 18.358 14.6911C18.3169 14.4851 18.271 14.2801 18.22 14.0763C18.3656 14.0332 18.5084 13.9888 18.6477 13.9427C21.2844 13.0691 23 11.6568 23 10.2123C23 8.82722 21.3947 7.48774 18.9106 6.63261V6.63261ZM18.3387 13.0101C18.2129 13.0517 18.0839 13.0918 17.9524 13.1309C17.6613 12.2094 17.2685 11.2296 16.7878 10.2171C17.2465 9.22882 17.6242 8.26148 17.9071 7.34597C18.1424 7.41407 18.3707 7.48586 18.5908 7.56159C20.7192 8.29436 22.0175 9.3776 22.0175 10.2123C22.0175 11.1014 20.6154 12.2557 18.3387 13.0101V13.0101ZM17.3941 14.8819C17.6243 16.0445 17.6571 17.0956 17.5046 17.9174C17.3677 18.6559 17.0922 19.1481 16.7515 19.3453C16.0268 19.7649 14.4767 19.2195 12.805 17.781C12.6074 17.6106 12.4145 17.4347 12.2267 17.2536C12.8748 16.5448 13.5225 15.7208 14.1546 14.8057C15.2665 14.707 16.317 14.5457 17.2696 14.3255C17.3165 14.5148 17.3582 14.7004 17.3941 14.8819V14.8819ZM7.8412 19.2728C7.13305 19.5229 6.56902 19.53 6.22806 19.3335C5.50257 18.9151 5.20096 17.2998 5.61236 15.1331C5.66126 14.8771 5.71726 14.6224 5.78028 14.3695C6.72238 14.5779 7.7652 14.7278 8.87971 14.8182C9.51616 15.7137 10.1825 16.5367 10.8541 17.2574C10.7114 17.3955 10.5653 17.5301 10.4159 17.661C9.52353 18.441 8.62931 18.9945 7.8412 19.2728V19.2728ZM4.52363 13.0046C3.40211 12.6212 2.47591 12.1231 1.84108 11.5794C1.27057 11.0909 0.982621 10.6059 0.982621 10.2123C0.982621 9.37482 2.23118 8.30658 4.31367 7.58055C4.5664 7.4925 4.8309 7.4094 5.10537 7.33141C5.39323 8.26759 5.77075 9.24643 6.22635 10.2362C5.76482 11.2407 5.38191 12.2352 5.09127 13.1824C4.90063 13.1278 4.71136 13.0685 4.52363 13.0046V13.0046ZM5.63572 5.43436C5.20348 3.22537 5.49053 1.55904 6.21297 1.14082C6.98239 0.695375 8.68385 1.33048 10.4772 2.92287C10.5942 3.02694 10.7092 3.13313 10.8223 3.24137C10.1541 3.95895 9.49379 4.7759 8.863 5.66607C7.78128 5.76634 6.74583 5.92734 5.79384 6.14305C5.73519 5.90822 5.68247 5.67194 5.63572 5.43445V5.43436ZM15.5569 7.88422C15.332 7.49582 15.0988 7.11231 14.8575 6.73395C15.5913 6.82676 16.2944 6.94994 16.9547 7.10052C16.7565 7.73589 16.5094 8.40011 16.2186 9.08112C16.006 8.67779 15.7854 8.27874 15.5569 7.88422V7.88422ZM11.5111 3.94359C11.9642 4.43458 12.4181 4.98272 12.8645 5.57748C11.9589 5.53471 11.0518 5.53453 10.1461 5.57695C10.593 4.98766 11.0508 4.44024 11.5111 3.94359ZM7.43924 7.89096C7.21359 8.28231 6.99709 8.67887 6.78994 9.08031C6.50388 8.40172 6.25905 7.73445 6.05915 7.09009C6.71537 6.94329 7.41516 6.82326 8.14434 6.73216C7.90027 7.11282 7.66517 7.49917 7.43924 7.89087V7.89096ZM8.16527 13.7624C7.41193 13.6783 6.70163 13.5645 6.04559 13.4217C6.24863 12.7658 6.49885 12.0843 6.79111 11.3912C6.99908 11.7929 7.21648 12.1897 7.44311 12.5813C7.67616 12.9838 7.91748 13.378 8.16527 13.7624ZM11.5382 16.5503C11.0724 16.0479 10.6079 15.492 10.1543 14.8942C10.5947 14.9114 11.0437 14.9202 11.5 14.9202C11.9688 14.9202 12.4322 14.9097 12.8884 14.8894C12.4405 15.498 11.9883 16.0547 11.5382 16.5503ZM16.2278 11.3558C16.5353 12.0566 16.7944 12.7344 17.0001 13.3791C16.3333 13.5313 15.6133 13.6538 14.8547 13.7448C15.0978 13.3594 15.3332 12.9693 15.5608 12.5745C15.7921 12.1733 16.0146 11.7669 16.2278 11.3558V11.3558ZM14.7097 12.0836C14.3613 12.6888 13.9933 13.2826 13.6063 13.8639C12.9053 13.9135 12.2028 13.9382 11.5 13.9378C10.7842 13.9378 10.088 13.9155 9.4176 13.872C9.02051 13.2921 8.64551 12.6973 8.29339 12.089H8.29348C7.94301 11.4839 7.61566 10.8657 7.31211 10.2358C7.61488 9.60571 7.94125 8.98724 8.29051 8.38169L8.29042 8.38178C8.63955 7.77607 9.01157 7.18384 9.40565 6.60637C10.0896 6.55462 10.791 6.52767 11.4999 6.52767H11.5C12.2121 6.52767 12.9144 6.55489 13.5982 6.607C13.9883 7.18361 14.358 7.7738 14.7064 8.37648C15.0569 8.98069 15.3875 9.59615 15.6979 10.2219C15.3907 10.854 15.0611 11.475 14.7097 12.0836V12.0836ZM16.7365 1.11153C17.5067 1.55572 17.8062 3.34693 17.3223 5.6959C17.2914 5.84576 17.2567 5.9984 17.219 6.1532C16.2647 5.93291 15.2285 5.76912 14.1437 5.66733C13.5117 4.76736 12.8568 3.94916 12.1994 3.24083C12.3717 3.07475 12.5481 2.91298 12.7284 2.75567C14.4265 1.27801 16.0135 0.694566 16.7365 1.11153V1.11153ZM11.5 8.15851C12.6343 8.15851 13.5538 9.07807 13.5538 10.2123C13.5538 11.3466 12.6343 12.2662 11.5 12.2662C10.3657 12.2662 9.44617 11.3466 9.44617 10.2123C9.44617 9.07807 10.3657 8.15851 11.5 8.15851V8.15851Z" fill="#00D8FF"/>
</svg>
