<svg width="23" height="24" viewBox="0 0 23 24" fill="none" xmlns="http://www.w3.org/2000/svg">
<path d="M19.7501 13.8143C18.95 13.82 18.2545 14.0881 17.6722 14.4845C17.4585 13.8958 17.2448 13.3713 17.2072 12.9865C17.1652 12.5378 17.115 12.2638 17.1652 11.7275C17.2155 11.1913 17.4418 10.4276 17.4375 10.3694C17.4334 10.3111 17.3872 10.0371 16.9264 10.0314C16.4656 10.0255 16.0676 10.1538 16.0215 10.3228C15.9754 10.4918 15.8875 10.8765 15.8288 11.2728C15.7492 11.8558 14.9072 13.9365 14.4254 15.0265C14.2704 14.6011 14.1363 14.228 14.1069 13.9308C14.0651 13.482 14.0148 13.208 14.0651 12.6718C14.1154 12.1355 14.3416 11.372 14.3374 11.3136C14.3332 11.2554 14.2871 10.9814 13.8263 10.9756C13.3654 10.9698 12.9674 11.098 12.9214 11.267C12.8753 11.4361 12.825 11.8324 12.7286 12.2171C12.6322 12.6019 11.5137 16.0759 11.2204 16.9734C11.1019 17.3366 10.9776 17.6962 10.8476 18.0518C10.8476 18.0518 10.8434 18.0693 10.8308 18.0984C10.7899 18.2099 10.7481 18.3206 10.7052 18.4306V18.4364C10.6423 18.5939 10.5753 18.7395 10.5418 18.7395C10.5166 18.7395 10.4705 18.3199 10.5501 17.7486C10.7177 16.5421 11.1157 14.6653 11.1115 14.6011C11.1115 14.5661 11.1869 14.2398 10.8518 14.0706C10.525 13.9016 10.4077 14.1814 10.3783 14.1814C10.349 14.1814 10.328 14.2805 10.328 14.2805C10.328 14.2805 10.6926 12.1705 9.63263 12.1705C8.97075 12.1705 8.0574 13.1789 7.60495 14.0881C7.0906 14.4776 6.5767 14.8681 6.06323 15.2598C5.81616 15.4521 5.56055 15.6445 5.32175 15.8251C5.30495 15.8019 5.28824 15.7726 5.27143 15.7494C3.98945 13.8434 1.6183 12.4969 1.71883 9.93813C1.75657 9.0055 1.98693 6.55738 6.27274 3.58475C9.80019 1.16575 12.6072 1.836 13.0931 3.32238C13.7885 5.44413 11.5892 9.38438 7.94429 9.9555C6.55341 10.1713 5.82442 9.42513 5.64015 9.14538C5.44744 8.85388 5.41806 8.83638 5.34681 8.89475C5.22957 8.98225 5.30495 9.2445 5.34681 9.396C5.45579 9.79225 5.90402 10.4918 6.66231 10.8358C7.33263 11.1388 8.96231 11.3079 10.9355 10.247C13.1434 9.05788 14.8694 5.753 14.3625 2.98438C13.8556 0.174876 10.504 -0.751875 7.33263 0.816001C5.44744 1.74875 3.40295 3.2175 1.93248 5.12938C0.185469 7.4025 -0.0910697 9.3785 0.0220436 10.2063C0.428497 13.1439 3.34015 15.0558 4.5048 16.4721C4.44613 16.5188 4.39159 16.5596 4.34559 16.5946C3.76323 16.9968 1.54283 18.6113 0.98984 20.3191C0.361473 22.2543 1.09047 23.6416 1.57221 23.828C3.06784 24.4051 4.60533 23.3676 5.43064 21.6539C6.25594 19.9403 6.15541 17.7136 5.7742 16.6936C5.76998 16.682 5.76584 16.6703 5.7574 16.6586C5.90825 16.5363 6.06323 16.408 6.21408 16.2856C6.49132 16.0576 6.77209 15.838 7.05618 15.6269C6.91369 16.169 6.80893 16.816 6.75871 17.7486C6.69582 18.8445 7.01836 20.2666 7.44152 20.8261C7.6301 21.0711 7.85211 21.0769 7.9946 21.0769C8.48892 21.0769 8.71101 20.5056 8.95817 19.8295C9.25978 19.0019 9.53209 18.0401 9.53209 18.0401C9.53209 18.0401 9.19275 20.6398 10.1145 20.6398C10.4496 20.6398 10.7889 20.0335 10.9398 19.7246V19.7304C10.9398 19.7304 10.9481 19.7129 10.9649 19.6721C10.9984 19.5964 11.0194 19.5496 11.0194 19.5496V19.5381C11.1534 19.2116 11.4551 18.4714 11.9033 17.2415C12.4815 15.6561 13.0387 13.6744 13.0387 13.6744C13.0387 13.6744 13.089 14.1581 13.2607 14.9625C13.3613 15.4346 13.5707 15.9534 13.7383 16.4546C13.6043 16.717 13.5204 16.8626 13.5204 16.8626L13.5247 16.8685C13.4157 17.0666 13.2984 17.2823 13.1685 17.4923C12.7118 18.2499 12.1673 19.1185 12.0918 19.369C12.0038 19.6663 12.0248 19.882 12.1925 20.0569C12.3139 20.1851 12.5317 20.2025 12.7538 20.1851C13.1644 20.1443 13.4534 20.0044 13.5958 19.917C13.8179 19.8063 14.0777 19.6371 14.3206 19.3865C14.7689 18.926 15.0411 18.2674 15.0161 17.399C15.0035 16.921 14.8904 16.443 14.7521 15.9941C14.7941 15.9126 14.8317 15.831 14.8737 15.7494C15.5816 14.3096 16.1305 12.73 16.1305 12.73C16.1305 12.73 16.1808 13.2138 16.3525 14.0183C16.4363 14.4263 16.6081 14.8693 16.7589 15.3005C16.0928 16.0525 15.6822 16.9268 15.5355 17.498C15.2717 18.5589 15.4769 19.0368 15.8665 19.1475C16.0424 19.2 16.2938 19.0834 16.4782 18.9726C16.7128 18.8678 16.9893 18.6871 17.2533 18.4189C17.7016 17.9585 18.133 17.3173 18.1079 16.4489C18.0953 16.0525 18.0199 15.6619 17.9151 15.283C18.4807 14.9568 19.2097 14.776 20.1397 14.9275C22.1339 15.2539 22.5277 16.985 22.4523 17.7138C22.3769 18.4423 21.9579 18.8386 21.8198 18.961C21.6814 19.0835 21.6354 19.1243 21.648 19.2116C21.6647 19.3399 21.7317 19.3341 21.849 19.3108C22.0125 19.27 22.8964 18.722 22.9341 17.3814C22.997 15.6678 21.8239 13.7968 19.7501 13.8143ZM4.36653 21.0303C3.70456 22.0328 2.78294 22.4116 2.38493 22.0911C1.95764 21.7471 2.1252 20.2666 2.93792 19.2059C3.43224 18.5589 4.06906 17.9584 4.49222 17.5913C4.58853 17.5096 4.73102 17.3931 4.90281 17.2474C4.93209 17.224 4.94889 17.2124 4.94889 17.2124L5.04943 17.1249C5.34681 18.6404 5.06201 19.9753 4.36653 21.0303ZM9.1844 16.4721C8.95395 17.2533 8.47221 19.2525 8.17896 19.1418C7.92757 19.0485 7.7725 17.533 8.12864 16.035C8.30878 15.283 8.68999 14.3854 8.91208 14.0358C9.27236 13.4761 9.67036 13.2895 9.76668 13.517C9.88824 13.8143 9.3268 15.9825 9.1844 16.4721ZM13.1602 19.1184C13.0638 19.1884 12.9717 19.235 12.9297 19.2C12.9004 19.1766 12.9717 19.0834 12.9717 19.0834C12.9717 19.0834 13.4702 18.3374 13.6671 17.9993C13.7803 17.8011 13.9142 17.568 14.0567 17.3056V17.3814C14.0567 18.2733 13.4366 18.8736 13.1601 19.1184H13.1602ZM16.2268 18.145C16.1556 18.075 16.1681 17.8419 16.4069 17.1133C16.4991 16.8276 16.7169 16.3498 17.0898 15.8893C17.1317 16.0758 17.1611 16.2565 17.1569 16.4255C17.1526 17.5505 16.5746 17.9701 16.2268 18.145Z" fill="#CD6799"/>
</svg>
