<svg width="28" height="17" viewBox="0 0 28 17" fill="none" xmlns="http://www.w3.org/2000/svg">
<path d="M7 5.6C7.93333 1.86667 10.2667 0 14 0C19.6 0 20.3 4.2 23.1 4.9C24.9667 5.36667 26.6 4.66667 28 2.8C27.0667 6.53333 24.7333 8.4 21 8.4C15.4 8.4 14.7 4.2 11.9 3.5C10.0333 3.03333 8.4 3.73333 7 5.6ZM0 14C0.933333 10.2667 3.26667 8.4 7 8.4C12.6 8.4 13.3 12.6 16.1 13.3C17.9667 13.7667 19.6 13.0667 21 11.2C20.0667 14.9333 17.7333 16.8 14 16.8C8.4 16.8 7.7 12.6 4.9 11.9C3.03333 11.4333 1.4 12.1333 0 14Z" fill="#44A8B3"/>
</svg>