<svg width="100" height="100" viewBox="0 0 100 100" fill="none" xmlns="http://www.w3.org/2000/svg">
<path d="M90.6562 15.7189L72.6375 7.04389C71.6199 6.55326 70.4749 6.39135 69.3612 6.58061C68.2475 6.76986 67.2202 7.30091 66.4219 8.10014L7.4375 61.8751C6.72185 62.5245 6.29346 63.4316 6.24657 64.3968C6.19969 65.362 6.53815 66.3063 7.1875 67.022C7.26562 67.1064 7.34375 67.1876 7.42812 67.2626L12.2437 71.6376C12.873 72.2103 13.683 72.5446 14.533 72.5822C15.383 72.6199 16.2194 72.3587 16.8969 71.8439L87.9437 17.9689C88.4804 17.5617 89.12 17.3123 89.7907 17.2489C90.4613 17.1855 91.1364 17.3106 91.7398 17.6101C92.3433 17.9095 92.8511 18.3714 93.2063 18.9439C93.5614 19.5163 93.7497 20.1765 93.75 20.8501V20.6408C93.7499 19.6123 93.4595 18.6048 92.9122 17.7341C92.3649 16.8634 91.583 16.1649 90.6562 15.7189Z" fill="#0065A9"/>
<path d="M90.6562 84.2813L72.6375 92.9595C71.6196 93.4487 70.475 93.6099 69.3616 93.4207C68.2482 93.2314 67.221 92.7012 66.4219 91.9032L7.4375 38.1251C6.72185 37.4757 6.29346 36.5686 6.24657 35.6034C6.19969 34.6382 6.53815 33.6939 7.1875 32.9782C7.26562 32.8938 7.34375 32.8126 7.42812 32.7376L12.2437 28.3626C12.8736 27.7875 13.6855 27.4518 14.5376 27.4141C15.3897 27.3764 16.228 27.6391 16.9062 28.1563L87.9437 82.0313C88.4804 82.4385 89.12 82.6879 89.7907 82.7513C90.4613 82.8147 91.1364 82.6896 91.7398 82.3902C92.3433 82.0907 92.8511 81.6288 93.2063 81.0564C93.5614 80.4839 93.7497 79.8237 93.75 79.1501V79.3751C93.7466 80.4008 93.4547 81.4048 92.9076 82.2724C92.3605 83.1401 91.5803 83.8362 90.6562 84.2813Z" fill="#007ACC"/>
<path d="M72.6375 92.9592C71.6196 93.4485 70.475 93.6096 69.3616 93.4204C68.2482 93.2312 67.221 92.701 66.4219 91.903C66.8706 92.3459 67.4402 92.6465 68.059 92.7671C68.6779 92.8878 69.3186 92.8231 69.9009 92.5812C70.4832 92.3393 70.9811 91.9309 71.3322 91.4072C71.6834 90.8835 71.8722 90.2679 71.875 89.6373V10.3623C71.8755 9.72887 71.688 9.10949 71.3363 8.58267C70.9845 8.05585 70.4842 7.6453 69.8989 7.40301C69.3136 7.16072 68.6696 7.0976 68.0484 7.22165C67.4272 7.3457 66.8567 7.65134 66.4094 8.09984C67.2079 7.30091 68.2349 6.76983 69.3484 6.58004C70.462 6.39026 71.6069 6.55115 72.625 7.04047L90.6406 15.703C91.5703 16.1467 92.3555 16.8443 92.9057 17.7152C93.4558 18.586 93.7485 19.5947 93.75 20.6248V79.3748C93.7503 80.4041 93.4597 81.4126 92.9118 82.2839C92.3639 83.1553 91.5809 83.8541 90.6531 84.2998L72.6375 92.9592Z" fill="#1F9CF0"/>
</svg>
