<svg xmlns="http://www.w3.org/2000/svg" xmlns:xlink="http://www.w3.org/1999/xlink" viewBox="0 0 84.66 123.06"><defs><style>.cls-1,.cls-7,.cls-8{fill:none;}.cls-2{fill:#1d1d1b;}.cls-3,.cls-5{fill:#fff;}.cls-3,.cls-7{stroke:#211915;stroke-width:0.46px;}.cls-3,.cls-7,.cls-8{stroke-linecap:round;stroke-miterlimit:10;}.cls-4{fill:#211915;}.cls-6{fill:url(#Motivo_nuevo_2);}.cls-8{stroke:#fff;stroke-width:0.57px;}</style><pattern id="Motivo_nuevo_2" data-name="Motivo nuevo 2" width="3.96" height="3.5" patternTransform="translate(-30.5 66.61) scale(2.17)" patternUnits="userSpaceOnUse" viewBox="0 0 3.96 3.5"><rect class="cls-1" width="3.96" height="3.5"/><path class="cls-2" d="M3.92,1.35A1.75,1.75,0,0,0,2.27.05H2.2A1.74,1.74,0,0,0,.83.25,1.81,1.81,0,0,0,0,1.71,1.76,1.76,0,0,0,.79,3.19a2.26,2.26,0,0,0,1.42.29,2.11,2.11,0,0,0,.85-.23A1.75,1.75,0,0,0,3.92,1.35Z"/></pattern></defs><g id="Layer_2" data-name="Layer 2"><g id="OBJECTS"><path class="cls-3" d="M64.35,38.77a3.77,3.77,0,0,0-3.19-2.72,59.72,59.72,0,0,0-.08-10,19.69,19.69,0,0,0-1.68-6.49A18,18,0,0,0,43.08,9.29c-9.08,0-15.3,5.38-18.46,15.88a31.24,31.24,0,0,0-1.18,9.29,2.06,2.06,0,0,1-1.28,1.88,3.74,3.74,0,0,0-1.62,1.36c-1.58,2.37.29,5.57,3.13,5.78l.87.07c1.15,5,3.1,9.36,5.45,11.91l-.64,31c7.17,8.17,19.31,8.73,26.39.27l-1-31.24A38.51,38.51,0,0,0,60,43.54l.89-.06A3.69,3.69,0,0,0,64.35,38.77Z"/><path class="cls-4" d="M54.51,55.41c-6.89,6.64-14.2,4.8-18,3.66a16.33,16.33,0,0,1-6.76-4.22v7.34l.17,0a27.55,27.55,0,0,0,7.08,1A24.86,24.86,0,0,0,54.7,55.7l.78-1.12s-.07-.49-.28-.18C54.72,55.1,54.59,55.33,54.51,55.41Z"/><path class="cls-2" d="M24.05,41.28A9.32,9.32,0,0,0,23.44,40a1.5,1.5,0,0,0-.85-.76c-.31-.07-.84,0-.94.27s.08.79.31,1.19a.08.08,0,0,1,0,.12.09.09,0,0,1-.1,0,2.46,2.46,0,0,1-.51-.6,1,1,0,0,1,.51-1.56,1.6,1.6,0,0,1,.9-.1A1.85,1.85,0,0,1,24,39.72a3.52,3.52,0,0,1,.29,1.52.12.12,0,0,1-.24,0Z"/><path class="cls-2" d="M60.12,41.24a3.67,3.67,0,0,1,.29-1.52,1.87,1.87,0,0,1,1.27-1.15,1.59,1.59,0,0,1,.9.1,1.11,1.11,0,0,1,.69.68,1.15,1.15,0,0,1-.17.88,2.7,2.7,0,0,1-.51.6.09.09,0,0,1-.13,0,.12.12,0,0,1,0-.1,1.64,1.64,0,0,0,.32-1.19c-.11-.22-.64-.34-1-.27A1.52,1.52,0,0,0,61,40a9.32,9.32,0,0,0-.61,1.27h0a.15.15,0,0,1-.17.07A.13.13,0,0,1,60.12,41.24Z"/><path class="cls-4" d="M53.29,56.5a8.26,8.26,0,0,0,2-2.3l-.62,1.5Z"/><path class="cls-4" d="M35.1,33.33c0,.82-.49,1.49-1.1,1.49s-1.11-.67-1.11-1.49.5-1.49,1.11-1.49S35.1,32.51,35.1,33.33Z"/><path class="cls-4" d="M51,33.33c0,.83-.49,1.49-1.1,1.49s-1.11-.67-1.11-1.49.5-1.49,1.11-1.49S51,32.51,51,33.33Z"/><path class="cls-4" d="M28.84,26.44a7.76,7.76,0,0,1,6-2.31,7.94,7.94,0,0,1,3.24.77,5.28,5.28,0,0,1,2.47,2.34A4.76,4.76,0,0,1,41,28.91c.05.55.06,1.1.08,1.64,0,1.09,0,2.18,0,3.26,0,2.18-.12,4.34-.23,6.51l-.16-.16c1.1.05,2.2.09,3.3.16-1.1.07-2.2.1-3.3.15h-.15v-.17l-.07-6.49c0-1.09,0-2.17-.08-3.24a8.78,8.78,0,0,0-.46-3.06,4.57,4.57,0,0,0-2.14-2.07,8.53,8.53,0,0,0-3-.83A8.11,8.11,0,0,0,28.84,26.44Z"/><path class="cls-4" d="M57.32,27.57c-.9-.72-1.78-1.47-2.7-2.12a4.72,4.72,0,0,0-2.92-1.09,12.13,12.13,0,0,0-3,1.35,29.54,29.54,0,0,0-2.89,1.86,12.7,12.7,0,0,1,2.6-2.31,9.35,9.35,0,0,1,3.19-1.58A4.64,4.64,0,0,1,55,25,16.23,16.23,0,0,1,57.32,27.57Z"/><path class="cls-4" d="M37,45.59a13.1,13.1,0,0,0,2.51,1.65,6.94,6.94,0,0,0,2.78.74A5.16,5.16,0,0,0,45,47.34a8.75,8.75,0,0,0,1.26-.78c.4-.29.76-.65,1.17-1-.29.42-.61.83-.95,1.23a6.46,6.46,0,0,1-1.21,1,5,5,0,0,1-3.06.86,6.22,6.22,0,0,1-3-1A7.86,7.86,0,0,1,37,45.59Z"/><path class="cls-2" d="M24,27.69S18.1,10,29,4.68a11.31,11.31,0,0,1,6.39-.91,8.26,8.26,0,0,0,6-1.52C45-.57,48.21-1.46,52.09,3.89c2.72,3.74,12.55-.37,9.09,22.55,0,0-.93-9.51-7.4-9.77-6.72-.28-7.71,5.95-12.78,3.4-6.28-3.15-11.21-4.51-13.46-.91A44.71,44.71,0,0,0,24,27.69Z"/><path class="cls-5" d="M55.1,75C43.51,80.3,29.55,75,29.4,75,14.86,78,1.73,86.36.24,100.77v22H83.92l.51-21.26C83.21,86.77,69.91,78.11,55.1,75Z"/><path class="cls-6" d="M55.1,75C43.51,80.3,29.55,75,29.4,75,14.86,78,1.73,86.36.24,100.77v22H83.92l.51-21.26C83.21,86.77,69.91,78.11,55.1,75Z"/><path class="cls-7" d="M55.1,75C43.51,80.3,29.55,75,29.4,75,14.86,78,1.73,86.36.24,100.77v22H83.92l.51-21.26C83.21,86.77,69.91,78.11,55.1,75Z"/><line class="cls-8" x1="19.89" y1="105.25" x2="19.89" y2="122.78"/><line class="cls-8" x1="64.33" y1="105.25" x2="64.33" y2="122.78"/></g></g></svg>